<svg width="157" height="327" viewBox="0 0 157 327" fill="none" xmlns="http://www.w3.org/2000/svg">
<path fill-rule="evenodd" clip-rule="evenodd" d="M324.711 126.253C326.195 154.889 299.725 176.238 286.826 201.847C276.147 223.049 273.467 249.15 255.185 264.292C237.12 279.254 210.188 273.901 188.641 283.17C160.711 295.184 140.608 327.899 110.23 326.649C80.3052 325.417 53.7488 301.919 37.2301 276.937C21.4042 253.002 28.3833 221.691 22.2903 193.651C16.2368 165.793 -3.58294 140.275 1.43551 112.213C6.59406 83.3666 27.8417 60.0625 49.6752 40.5176C71.3409 21.123 96.8814 4.48689 125.742 0.936046C153.655 -2.49813 179.603 11.9658 206.143 21.2668C231.858 30.2785 258.801 36.6522 279.202 54.7156C300.728 73.7761 323.223 97.5398 324.711 126.253Z" fill="#EFB478"/>
</svg>
