<svg width="35" height="33" viewBox="0 0 35 33" fill="none" xmlns="http://www.w3.org/2000/svg">
<path d="M20.5161 0.480469C18.1371 0.480469 16.3617 2.67328 16.3617 5.16797V9.48547C13.2416 9.67227 10.3883 10.6109 8.11042 12.083C7.23262 11.1319 6.05724 10.7095 4.91761 10.7105C3.682 10.7115 2.41884 11.1946 1.54754 12.3005L1.5276 12.3255L1.50766 12.3505C0.671839 13.5291 0.340884 15.108 0.563772 16.6755C0.767325 18.107 1.50212 19.544 2.77946 20.4855C2.7711 20.6444 2.74845 20.8 2.74845 20.9605C2.74845 27.3118 9.36447 32.4805 17.4961 32.4805C25.6277 32.4805 32.2437 27.3118 32.2437 20.9605C32.2437 20.8 32.2211 20.6444 32.2127 20.4855C33.4901 19.544 34.2249 18.107 34.4284 16.6755C34.6513 15.108 34.3204 13.5291 33.4845 12.3505L33.4646 12.3255L33.4446 12.3005C32.5732 11.1944 31.3103 10.7115 30.0746 10.7105C28.9349 10.7095 27.7593 11.1315 26.8818 12.083C24.6039 10.6109 21.7506 9.67227 18.6305 9.48547V5.16797C18.6305 3.91481 19.2717 3.04047 20.5161 3.04047C21.1068 3.04047 21.8263 3.37443 22.9533 3.82047C23.9061 4.19753 25.1459 4.57864 26.7311 4.69297C27.1103 5.9577 28.163 6.88047 29.4077 6.88047C30.9675 6.88047 32.2437 5.44047 32.2437 3.68047C32.2437 1.92047 30.9675 0.480469 29.4077 0.480469C28.3427 0.480469 27.4196 1.15941 26.9349 2.14547C25.5799 2.06079 24.5843 1.75369 23.7045 1.40547C22.6792 0.999672 21.7371 0.480469 20.5161 0.480469ZM4.91761 13.2705C5.36587 13.2701 5.79176 13.4028 6.14289 13.618C4.89048 14.7975 3.94025 16.1756 3.36662 17.6805C3.06204 17.2563 2.8785 16.78 2.80605 16.2705C2.6838 15.4107 2.91183 14.517 3.27356 13.988C3.6154 13.5728 4.23962 13.271 4.91761 13.2705ZM30.0724 13.2705C30.7506 13.271 31.3769 13.5729 31.7186 13.988C32.0804 14.517 32.3084 15.4107 32.1861 16.2705C32.1137 16.78 31.9301 17.2563 31.6256 17.6805C31.0519 16.1756 30.1017 14.7975 28.8493 13.618C29.1996 13.4031 29.6243 13.2701 30.0724 13.2705ZM11.8239 15.8405C13.0775 15.8405 14.0928 16.9861 14.0928 18.4005C14.0928 19.8149 13.0775 20.9605 11.8239 20.9605C10.5704 20.9605 9.55505 19.8149 9.55505 18.4005C9.55505 16.9861 10.5704 15.8405 11.8239 15.8405ZM23.1683 15.8405C24.4218 15.8405 25.4371 16.9861 25.4371 18.4005C25.4371 19.8149 24.4218 20.9605 23.1683 20.9605C21.9147 20.9605 20.8994 19.8149 20.8994 18.4005C20.8994 16.9861 21.9147 15.8405 23.1683 15.8405ZM23.4386 22.923C22.7137 25.3127 20.3957 27.3605 17.4961 27.3605C14.5965 27.3605 12.2785 25.3137 11.5536 23.0955C12.8582 24.2897 15.0321 25.143 17.4961 25.143C19.9601 25.143 22.134 24.2887 23.4386 22.923Z" fill="#E78551"/>
</svg>
