<svg width="33" height="33" viewBox="0 0 33 33" fill="none" xmlns="http://www.w3.org/2000/svg">
<path d="M27.1513 32.4805H5.84867C2.90493 32.4805 0.5 30.0755 0.5 27.1318V5.82913C0.5 2.8854 2.90493 0.480469 5.84867 0.480469H27.1513C30.0951 0.480469 32.5 2.8854 32.5 5.82913V27.1318C32.5 30.0887 30.1082 32.4805 27.1513 32.4805Z" fill="#E78551"/>
<path d="M16.5026 24.7005C14.308 24.7005 12.2447 23.8463 10.694 22.2956C9.14327 20.7449 8.28906 18.6817 8.28906 16.487C8.28906 14.2923 9.14327 12.2291 10.694 10.6784C12.2447 9.12765 14.308 8.27344 16.5026 8.27344C18.6973 8.27344 20.7605 9.12765 22.3112 10.6784C23.862 12.2291 24.7162 14.2923 24.7162 16.487C24.7162 18.6817 23.862 20.7449 22.3112 22.2956C20.7474 23.8463 18.6973 24.7005 16.5026 24.7005ZM16.5026 10.0213C12.9412 10.0213 10.0369 12.9125 10.0369 16.487C10.0369 20.0484 12.9281 22.9527 16.5026 22.9527C20.064 22.9527 22.9683 20.0615 22.9683 16.487C22.9552 12.9256 20.064 10.0213 16.5026 10.0213Z" fill="white"/>
<path d="M26.3192 8.00369C27.1902 8.00369 27.8963 7.29763 27.8963 6.42665C27.8963 5.55568 27.1902 4.84961 26.3192 4.84961C25.4483 4.84961 24.7422 5.55568 24.7422 6.42665C24.7422 7.29763 25.4483 8.00369 26.3192 8.00369Z" fill="white"/>
</svg>
