<svg width="36" height="33" viewBox="0 0 36 33" fill="none" xmlns="http://www.w3.org/2000/svg">
<path d="M8.40009 10.8164H1.08594V32.3253H8.40009V10.8164Z" fill="#E78551"/>
<path d="M28.1823 10.3511C27.9127 10.32 27.6262 10.3045 27.3397 10.2889C23.2444 10.1335 20.9356 12.3715 20.1267 13.335C19.9076 13.5992 19.8064 13.7546 19.8064 13.7546V10.8795H12.8125V32.3884H19.8064H20.1267C20.1267 30.1971 20.1267 28.0214 20.1267 25.8301C20.1267 24.6489 20.1267 23.4678 20.1267 22.2867C20.1267 20.8258 20.0087 19.2717 20.8008 17.9352C21.4749 16.8162 22.6883 16.2567 24.0534 16.2567C28.0981 16.2567 28.1823 19.6292 28.1823 19.94C28.1823 19.9555 28.1823 19.9711 28.1823 19.9711V32.4817H35.4965V18.448C35.4965 13.6458 32.8506 10.8173 28.1823 10.3511Z" fill="#E78551"/>
<path d="M4.74692 8.03585C7.09243 8.03585 8.99386 6.28244 8.99386 4.11949C8.99386 1.95654 7.09243 0.203125 4.74692 0.203125C2.40141 0.203125 0.5 1.95654 0.5 4.11949C0.5 6.28244 2.40141 8.03585 4.74692 8.03585Z" fill="#E78551"/>
</svg>
