<svg width="48" height="49" viewBox="0 0 48 49" fill="none" xmlns="http://www.w3.org/2000/svg">
<path d="M8.33366 40.4805C7.25658 40.4805 6.32637 40.0971 5.54303 39.3305C4.79234 38.5305 4.41699 37.5805 4.41699 36.4805V12.4805C4.41699 11.3805 4.79234 10.4471 5.54303 9.68047C6.32637 8.88047 7.25658 8.48047 8.33366 8.48047H39.667C40.7441 8.48047 41.658 8.88047 42.4087 9.68047C43.192 10.4471 43.5837 11.3805 43.5837 12.4805V36.4805C43.5837 37.5805 43.192 38.5305 42.4087 39.3305C41.658 40.0971 40.7441 40.4805 39.667 40.4805H8.33366ZM24.0003 26.4805L39.667 16.4805V12.4805L24.0003 22.4805L8.33366 12.4805V16.4805L24.0003 26.4805Z" fill="#FF9F6C"/>
</svg>
