<svg width="478" height="515" viewBox="0 0 478 515" fill="none" xmlns="http://www.w3.org/2000/svg">
<path fill-rule="evenodd" clip-rule="evenodd" d="M208.182 8.84803C251.818 14.9467 292.091 30.7533 330.819 51.7646C370.391 73.2341 410.941 95.2616 436.179 132.544C462.245 171.053 471.636 217.772 474.604 264.178C477.704 312.663 482.834 367.057 453.66 405.906C424.662 444.521 368.423 445.856 323.982 464.751C285.151 481.261 249.99 504.581 208.182 510.277C162.471 516.505 113.793 519.786 72.608 498.999C30.7114 477.853 6.55687 434.684 -19.2499 395.486C-46.3868 354.268 -82.7054 313.523 -81.9896 264.178C-81.2751 214.927 -40.3347 177.573 -15.4718 135.052C9.24847 92.7747 21.3636 38.5435 64.0158 14.4757C106.625 -9.56831 159.727 2.07592 208.182 8.84803Z" fill="#C8D3EF"/>
</svg>
