<svg width="40" height="40" viewBox="0 0 40 40" fill="none" xmlns="http://www.w3.org/2000/svg">
<path d="M39.8572 19.2001L37.0059 5.02021C36.7248 3.57945 35.9427 2.28352 34.7972 1.36023C33.6518 0.467193 32.236 -0.0122761 30.7814 0.000238927H15.7622C14.9384 -0.00396936 14.122 0.154734 13.3602 0.46715C12.5985 0.779566 11.9066 1.23948 11.3247 1.82023C10.8554 1.24871 10.264 0.788739 9.59358 0.473875C8.92314 0.159011 8.19059 -0.00280272 7.44938 0.000238927H5.05995C3.71797 0.000238927 2.43095 0.531234 1.48203 1.47641C0.533101 2.42159 0 3.70353 0 5.04021V21.6201C0 22.9568 0.533101 24.2387 1.48203 25.1839C2.43095 26.1291 3.71797 26.6601 5.05995 26.6601H7.46946C8.16958 26.6622 8.86228 26.5172 9.50235 26.2346C10.1424 25.952 10.7155 25.5382 11.1841 25.0201C11.4251 25.3548 11.6995 25.6614 12.0074 25.9401L13.8948 37.24C13.9779 37.748 14.1791 38.2297 14.4825 38.6464C14.7858 39.0631 15.1828 39.4034 15.6417 39.64C16.1035 39.868 16.6115 39.99 17.1275 40C17.6438 39.9935 18.1518 39.8704 18.6134 39.64L20.8221 38.56C22.5946 37.6899 24.0128 36.2393 24.839 34.4514C25.6652 32.6635 25.8492 30.647 25.36 28.7401L24.8379 26.7401H33.7531C34.6768 26.7481 35.5903 26.5401 36.4236 26.1401C37.6859 25.5397 38.7109 24.537 39.3365 23.2908C39.962 22.0446 40.1523 20.6262 39.8773 19.2601L39.8572 19.2001ZM9.47737 21.6201C9.47737 22.1505 9.26583 22.6592 8.88927 23.0343C8.51271 23.4094 8.00199 23.6201 7.46946 23.6201H5.08003C4.5475 23.6201 4.03678 23.4094 3.66022 23.0343C3.28366 22.6592 3.07211 22.1505 3.07211 21.6201V5.04021C3.07211 4.50978 3.28366 4.00107 3.66022 3.626C4.03678 3.25093 4.5475 3.04022 5.08003 3.04022H7.46946C8.00199 3.04022 8.51271 3.25093 8.88927 3.626C9.26583 4.00107 9.47737 4.50978 9.47737 5.04021V21.6201Z" fill="#333333"/>
</svg>
