<svg width="40" height="40" viewBox="0 0 40 40" fill="none" xmlns="http://www.w3.org/2000/svg">
<path d="M39.7929 18.0441C39.5722 17.1402 39.1528 16.2965 38.5689 15.5734C37.9859 14.8514 37.2442 14.2739 36.4016 13.8861C35.5616 13.4865 34.6427 13.2806 33.7126 13.2835H24.8229L25.3447 11.2747C25.8288 9.3628 25.6447 7.34257 24.8229 5.54989C23.9852 3.76496 22.5714 2.31439 20.8095 1.43202L18.6021 0.347313C18.1404 0.118848 17.6323 0 17.1172 0C16.6021 0 16.094 0.118848 15.6322 0.347313C15.1709 0.586103 14.7722 0.930154 14.4683 1.35167C14.1604 1.76455 13.9604 2.24787 13.8864 2.75777L12.0001 14.107C11.6949 14.386 11.4192 14.6956 11.1773 15.031C10.7194 14.4763 10.1469 14.0274 9.49907 13.7153C8.85127 13.4032 8.14362 13.2353 7.4248 13.2232H5.05689C3.71572 13.2232 2.42948 13.7565 1.48113 14.7058C0.532779 15.6551 0 16.9426 0 18.2852V34.9374C0 36.28 0.532779 37.5675 1.48113 38.5168C2.42948 39.4661 3.71572 39.9994 5.05689 39.9994H7.4248C8.16849 40.0026 8.90358 39.8403 9.57688 39.5241C10.2502 39.208 10.8448 38.746 11.3178 38.1715C12.4963 39.344 14.091 40.0013 15.7526 39.9994H30.843C32.3013 40.0194 33.7207 39.5292 34.8564 38.6134C36.0052 37.6981 36.7883 36.4011 37.0638 34.9575L39.9133 20.7157C40.0608 19.8266 40.0197 18.9164 39.7929 18.0441ZM9.43151 35.0178C9.43151 35.5505 9.22009 36.0615 8.84376 36.4382C8.46743 36.8149 7.95702 37.0265 7.4248 37.0265H5.05689C4.52468 37.0265 4.01427 36.8149 3.63794 36.4382C3.26161 36.0615 3.05019 35.5505 3.05019 35.0178V18.3655C3.05019 17.8328 3.26161 17.3218 3.63794 16.9451C4.01427 16.5684 4.52468 16.3568 5.05689 16.3568H7.4248C7.95702 16.3568 8.46743 16.5684 8.84376 16.9451C9.22009 17.3218 9.43151 17.8328 9.43151 18.3655V35.0178Z" fill="#333333"/>
</svg>
