<svg width="48" height="48" viewBox="0 0 48 48" fill="none" xmlns="http://www.w3.org/2000/svg">
<g filter="url(#filter0_d_2318_3657)">
<path d="M43.8572 19.2001L41.0059 5.02021C40.7248 3.57945 39.9427 2.28352 38.7972 1.36023C37.6518 0.467193 36.236 -0.0122761 34.7814 0.000238927H19.7622C18.9384 -0.00396936 18.122 0.154734 17.3602 0.46715C16.5985 0.779566 15.9066 1.23948 15.3247 1.82023C14.8554 1.24871 14.264 0.788739 13.5936 0.473875C12.9231 0.159011 12.1906 -0.00280272 11.4494 0.000238927H9.05995C7.71797 0.000238927 6.43095 0.531234 5.48203 1.47641C4.5331 2.42159 4 3.70353 4 5.04021V21.6201C4 22.9568 4.5331 24.2387 5.48203 25.1839C6.43095 26.1291 7.71797 26.6601 9.05995 26.6601H11.4695C12.1696 26.6622 12.8623 26.5172 13.5024 26.2346C14.1424 25.952 14.7155 25.5382 15.1841 25.0201C15.4251 25.3548 15.6995 25.6614 16.0074 25.9401L17.8948 37.24C17.9779 37.748 18.1791 38.2297 18.4825 38.6464C18.7858 39.0631 19.1828 39.4034 19.6417 39.64C20.1035 39.868 20.6115 39.99 21.1275 40C21.6438 39.9935 22.1518 39.8704 22.6134 39.64L24.8221 38.56C26.5946 37.6899 28.0128 36.2393 28.839 34.4514C29.6652 32.6635 29.8492 30.647 29.36 28.7401L28.8379 26.7401H37.7531C38.6768 26.7481 39.5903 26.5401 40.4236 26.1401C41.6859 25.5397 42.7109 24.537 43.3365 23.2908C43.962 22.0446 44.1523 20.6262 43.8773 19.2601L43.8572 19.2001ZM13.4774 21.6201C13.4774 22.1505 13.2658 22.6592 12.8893 23.0343C12.5127 23.4094 12.002 23.6201 11.4695 23.6201H9.08003C8.5475 23.6201 8.03678 23.4094 7.66022 23.0343C7.28366 22.6592 7.07211 22.1505 7.07211 21.6201V5.04021C7.07211 4.50978 7.28366 4.00107 7.66022 3.626C8.03678 3.25093 8.5475 3.04022 9.08003 3.04022H11.4695C12.002 3.04022 12.5127 3.25093 12.8893 3.626C13.2658 4.00107 13.4774 4.50978 13.4774 5.04021V21.6201Z" fill="#333333"/>
</g>
<defs>
<filter id="filter0_d_2318_3657" x="0" y="0" width="48" height="48" filterUnits="userSpaceOnUse" color-interpolation-filters="sRGB">
<feFlood flood-opacity="0" result="BackgroundImageFix"/>
<feColorMatrix in="SourceAlpha" type="matrix" values="0 0 0 0 0 0 0 0 0 0 0 0 0 0 0 0 0 0 127 0" result="hardAlpha"/>
<feOffset dy="4"/>
<feGaussianBlur stdDeviation="2"/>
<feComposite in2="hardAlpha" operator="out"/>
<feColorMatrix type="matrix" values="0 0 0 0 0 0 0 0 0 0 0 0 0 0 0 0 0 0 0.25 0"/>
<feBlend mode="normal" in2="BackgroundImageFix" result="effect1_dropShadow_2318_3657"/>
<feBlend mode="normal" in="SourceGraphic" in2="effect1_dropShadow_2318_3657" result="shape"/>
</filter>
</defs>
</svg>
