<svg width="42" height="41" viewBox="0 0 42 41" fill="none" xmlns="http://www.w3.org/2000/svg">
<path d="M39.8951 11.8231C38.8588 9.53329 37.3713 7.47746 35.4826 5.70577C33.5939 3.95079 31.4043 2.56352 28.9641 1.59411C26.4403 0.591266 23.766 0.0898438 21.0082 0.0898438C18.2504 0.0898438 15.5761 0.591266 13.0523 1.59411C10.612 2.56352 8.42248 3.93408 6.53379 5.70577C4.6451 7.47746 3.15757 9.53329 2.1213 11.8231C1.0516 14.1965 0.5 16.737 0.5 19.3444C0.5 23.9074 2.20482 28.2865 5.33035 31.763L3.65894 40.8721L12.5509 36.9109C15.2084 38.0475 18.0331 38.6157 20.9914 38.6157C23.7493 38.6157 26.4235 38.1143 28.9474 37.1115C31.3876 36.1421 33.5771 34.7715 35.4658 32.9998C37.3545 31.2281 38.8421 29.1723 39.8783 26.8825C40.948 24.5091 41.4996 21.9685 41.4996 19.3612C41.5163 16.737 40.9648 14.2132 39.8951 11.8231Z" fill="#FF9F6C"/>
<path d="M29.332 23.1888C28.4629 22.7543 27.8278 22.4869 27.3765 22.3197C27.0924 22.2194 26.4238 21.9186 26.1898 22.1024C25.4544 22.7041 24.6688 24.409 23.8331 24.7265C21.7606 24.3254 19.8385 22.9047 18.3342 21.4506C17.6657 20.8154 16.4288 19.0103 16.1614 18.5256C16.1112 18.0242 17.0138 17.3556 17.2143 16.9712C18.2506 15.8012 17.4651 15.0658 17.3314 14.5811C17.0974 14.0797 16.6963 13.1771 16.3453 12.4417C16.0444 11.957 15.9775 11.2383 15.4426 10.9709C13.1695 9.80088 11.8659 12.1409 11.331 13.361C8.10523 21.133 27.4935 35.925 31.438 25.7294C31.6386 24.8435 31.555 24.5093 31.2541 24.1081C30.6524 23.6903 29.9505 23.5064 29.332 23.1888Z" fill="white"/>
</svg>
